<?xml version="1.0" encoding="UTF-8"?><svg id="Layer_2" xmlns="http://www.w3.org/2000/svg" viewBox="0 0 51.68 31.65"><defs><style>.cls-1{fill:#fff;}</style></defs><g id="Layer_1-2"><g id="Layer_2-2"><g id="uuid-f83ce68f-11c9-4e23-a168-e67aaa5af97e"><path class="cls-1" d="M2.94,3.12h0s0-.02,0-.02l-.02.02Z"/><path class="cls-1" d="M16.34,1.57h0s.01.02.01.02l-.02-.02Z"/><path class="cls-1" d="M51.57,6.43c-.69-3.7-5.65-5.17-8.26-2.48-.64-.63-1.45-1.07-2.32-1.27-1.09-.26-2.23-.15-3.24.32-1.2-.54-2.52-.54-3.76-.18-1.3-.39-2.7-.35-3.93.24-1.29-.7-2.82-.83-4.2-.34-2.56-.92-5.58-.26-7.6,1.54C16.54-.76,9.37-.77,5.36,1.3-1.35,4.78-1.58,14.55,3.66,19.22c.71.61,3.31,1.9,3.84,2.53,2.26,2.68,2.44,3.54,6.34,6.31,7.39,4.72,18.11,4.74,25.71.34,3.89-1.8,6.01-5.52,7.73-9.23,1.21-2.51,3.47-7.64,4.2-10.33.22-.78.25-1.6.08-2.4ZM30.64,7.35c.01-.59.22-1.04.63-1.39.34-.29.78-.45,1.23-.45h.03c.33,0,.66.05.96.18.25.11.46.29.6.52l.08.13.1-.12c.37-.46.94-.7,1.73-.7.46,0,.9.17,1.22.48.36.37.55.84.55,1.45,0,.26-.07.51-.2.73-.16.23-.37.42-.62.55l-1.68.71h0c-.28.13-.52.33-.71.57-.16.22-.25.48-.25.75v4.42c-.01.58-.19,1.05-.53,1.43-.33.37-.82.58-1.32.56h0c-.49.01-.97-.19-1.3-.56-.34-.38-.52-.85-.52-1.43v-7.85ZM32.01,20.41c0,1.09-.88,1.97-1.97,1.97s-1.97-.88-1.97-1.97.88-1.97,1.97-1.97,1.97.88,1.97,1.97ZM18.7,9.66c.3-1.29.9-2.35,1.82-3.16.92-.81,1.96-1.22,3.15-1.23h.05c.31,0,.62.03.92.1.57.13,1.11.4,1.56.78l.09.08.07-.1c.35-.49.82-.73,1.45-.75h0c.19,0,.38.03.57.07.38.08.71.33.89.67.21.36.31.87.31,1.54v7.13c0,.35-.04.7-.11,1.04-.1.42-.28.72-.55.92-.27.2-.63.31-1.1.31h-.03c-.17,0-.33-.02-.5-.06-.41-.09-.76-.36-.96-.72l-.07-.11-.1.09c-.68.6-1.56.93-2.47.92h-.07c-.37,0-.74-.04-1.09-.12-1.2-.28-2.16-.94-2.9-2.01-.74-1.07-1.12-2.33-1.13-3.81,0-.53.07-1.06.18-1.58ZM25.47,20.41c0,1.09-.88,1.97-1.97,1.97s-1.97-.88-1.97-1.97.88-1.97,1.97-1.97,1.97.88,1.97,1.97ZM17.05,8.69c.25.3.43.71.55,1.26.23,1.1.23,2.24,0,3.34-.11.54-.29,1.05-.53,1.55l-.1.2c0-.69-.47-1.41-1.25-1.78-.66-.31-1.39-.29-1.91,0,.06-.15.11-.3.15-.46.05-.24.06-.48.05-.71v-.13s-1.62.36-1.62.36h-.04c-.24.06-.49.06-.74,0-.33-.06-.64-.22-.88-.46-.23-.26-.39-.58-.45-.92v-.02c-.06-.25-.06-.51,0-.76.06-.33.22-.63.46-.86.27-.24.59-.39.94-.46l3.32-.7c.36-.08.74-.09,1.11-.02.37.08.7.28.94.58ZM5.9,16.6c-.11-.1-.21-.21-.31-.32-1.02-1.1-1.69-2.44-2.02-4.02v-.03c-.26-1.18-.26-2.4,0-3.57.3-1.39.93-2.56,1.88-3.51.49-.5,1.05-.92,1.66-1.25.64-.33,1.32-.58,2.02-.71.03,0,.07-.02.1-.02,1.21-.26,2.46-.26,3.67,0,.8.18,1.42.43,1.85.76.41.29.7.72.81,1.21.05.28.05.57-.01.85-.06.31-.2.6-.42.83-.22.22-.51.36-.81.42-.4.08-1.04-.04-1.89-.35-.8-.31-1.67-.39-2.52-.23h-.06s0,.02,0,.02c-.67.13-1.21.41-1.63.83-.42.42-.7.98-.85,1.68-.15.74-.15,1.51.02,2.25v.04c.21.98.54,1.77,1,2.35.05.06.1.12.15.18-.6-.18-1.33-.02-1.92.47-.7.58-.97,1.46-.71,2.14ZM38.24,25.52c-1.36.79-2.81,1.41-4.32,1.86-2.18.64-4.44.97-6.71.96-3.11,0-6.04-.58-8.6-1.62-2.56-1.04-4.57-2.52-6.16-4.43-.99-1.19-1.81-2.6-2.32-3.55-.16-.02-.32-.05-.48-.08-.65-.14-1.26-.39-1.83-.74-.27-.17-.53-.36-.76-.57-.21-.18-.33-.44-.33-.71v-.02c.02-.56.28-1.08.71-1.43.18-.15.38-.28.6-.38.2-.09.42-.14.65-.15.17,0,.34.04.49.12.05.03.11.07.17.11l.18.14c.1.08.21.16.33.23.2.12.42.2.64.26.21.05.42.07.63.07.14,0,.28-.01.42-.04.27-.05.52-.15.76-.28h.01c.17-.09.33-.19.48-.31.17-.14.32-.3.43-.49.14-.23.37-.4.64-.45.12-.02.24-.04.36-.03.3,0,.6.07.88.2.49.22.86.63,1.04,1.13.03.09.04.19.04.28,0,.18-.05.36-.14.51-.18.3-.39.58-.63.83-.06.06-.11.12-.17.18l-.2.2v-.02c-.34.3-.72.56-1.12.76.1.15.3.67.54,1.03.82,1.23,1.86,2.37,3.45,3.29,1.13.65,2.33,1.16,3.57,1.53,1.86.55,3.79.82,5.73.82,2.68,0,5.19-.51,7.31-1.37,1.91-.78,3.51-1.85,4.67-3.05.08.41.26.79.53,1.11.39.46.92.79,1.51.92h0c.23.05.47.08.7.08h.09s.07,0,.11,0c-1.13,1.23-2.45,2.28-3.9,3.12ZM48.8,7.2c0,.29-.05.58-.17.84l-4.88,12c-.06.16-.14.31-.22.45-.13.22-.29.42-.49.58-.28.22-.64.34-1,.34h-.08c-.16,0-.32-.02-.48-.05-.38-.08-.73-.29-.98-.59-.23-.26-.35-.6-.35-.94v-.04h0v-.05c0-.17.03-.33.07-.49.07-.3.17-.6.27-.89.13-.36.29-.77.49-1.23h0c.2-.42.38-.85.56-1.27l.02-.04-3.08-7.83c-.11-.26-.17-.54-.17-.82,0-.13.01-.25.04-.38.1-.39.34-.74.69-.95.29-.22.64-.34,1-.34h.03c.16,0,.32.02.48.05.3.07.58.21.8.42.23.23.41.5.52.81l1.61,4.46,1.77-4.44c.17-.43.48-.8.88-1.04.26-.16.56-.24.86-.24.14,0,.28.02.42.05.37.08.7.27.96.54.28.28.44.66.44,1.05v.05Z"/><path class="cls-1" d="M23.69,13.72c.13.03.27.05.4.05.38,0,.74-.15,1.01-.4.36-.31.6-.74.73-1.29.06-.26.09-.53.09-.8v-.04c.01-.56-.12-1.12-.39-1.61-.26-.47-.63-.77-1.09-.88-.14-.03-.28-.05-.42-.05-.36,0-.71.13-.98.38-.38.36-.65.83-.75,1.34-.06.28-.1.56-.11.84h0c-.01.56.12,1.12.39,1.61.26.46.64.76,1.12.87Z"/></g></g></g></svg>