<?xml version="1.0" encoding="UTF-8"?><svg id="Layer_2" xmlns="http://www.w3.org/2000/svg" viewBox="0 0 47.02 45.27"><defs><style>.cls-1{fill:#d3ae5a;}.cls-2{fill:#fccb61;}</style></defs><g id="Layer_1-2"><path class="cls-2" d="M34.45,43.77c-.89,0-1.76-.29-2.51-.83l-7.67-5.57c-.22-.16-.48-.25-.75-.25s-.53.08-.75.25l-7.67,5.58c-.75.54-1.62.83-2.51.83-1.37,0-2.68-.67-3.5-1.8-.8-1.11-1.02-2.5-.59-3.82l2.93-9.02c.17-.53-.01-1.11-.47-1.44l-7.67-5.58c-1.53-1.11-2.14-2.99-1.56-4.79s2.18-2.96,4.08-2.96h9.48c.56,0,1.05-.36,1.22-.89l2.93-9.02c.58-1.8,2.18-2.96,4.08-2.96s3.49,1.16,4.08,2.96l2.93,9.02c.17.53.66.89,1.22.89h9.48c1.89,0,3.49,1.16,4.08,2.96s-.03,3.68-1.56,4.79l-7.67,5.58c-.45.33-.64.9-.47,1.44l2.93,9.02c.43,1.32.21,2.72-.59,3.82-.82,1.13-2.12,1.8-3.5,1.8Z"/><path class="cls-1" d="M23.51,3c1.12,0,2.23.64,2.65,1.92l2.93,9.02c.37,1.15,1.44,1.92,2.65,1.92h9.48c2.7,0,3.82,3.45,1.64,5.04l-7.67,5.57c-.98.71-1.38,1.97-1.01,3.11l2.93,9.02c.64,1.95-.92,3.66-2.66,3.66-.54,0-1.11-.17-1.63-.54l-7.67-5.57c-.49-.35-1.06-.53-1.64-.53s-1.15.18-1.64.53l-7.67,5.57c-.52.38-1.08.54-1.63.54-1.74,0-3.29-1.7-2.66-3.66l2.93-9.02c.37-1.15-.04-2.4-1.01-3.11l-7.67-5.57c-2.18-1.59-1.06-5.04,1.64-5.04h9.48c1.21,0,2.28-.78,2.65-1.92l2.93-9.02c.42-1.28,1.53-1.92,2.65-1.92h0ZM23.51,0c-2.55,0-4.71,1.57-5.5,4l-2.88,8.87H5.8c-2.55,0-4.71,1.57-5.5,4s.04,4.97,2.1,6.47l7.55,5.48-2.88,8.87c-.58,1.79-.29,3.67.8,5.17,1.1,1.51,2.86,2.42,4.71,2.42,1.21,0,2.38-.39,3.39-1.12l7.55-5.48,7.55,5.48c1.01.73,2.18,1.12,3.39,1.12,1.85,0,3.61-.9,4.71-2.42,1.09-1.5,1.38-3.38.8-5.17l-2.88-8.87,7.55-5.48c2.07-1.5,2.89-4.04,2.1-6.47-.79-2.43-2.95-4-5.5-4h-9.33l-2.88-8.87c-.79-2.43-2.95-4-5.5-4Z"/></g></svg>